<svg viewBox="0 0 143.1 317.3" xmlns="http://www.w3.org/2000/svg"><path d="m79.86 317.2c-3.31 0-9.23-.21-16.09-.47-9.12-.33-19.45-.73-26.77-.73-7.7 0-12.78 0-16.28-.18s-12-.62-15.83-8.33a23 23 0 0 1 -2-9.32 21.23 21.23 0 0 1 1.15-7.62c-2.1-5.55-3.04-13.81-3.04-25.55a38.15 38.15 0 0 1 .41-6.72c-1-3.48-.94-7.9-.91-15.64v-.19c0-1.86 0-4 0-6.35 0-19.19.15-19.94.4-21.19.08-.4.18-.81.3-1.21a14.36 14.36 0 0 1 3.47-5.86c-3.5-8.29-4.18-12.84-2.55-17.32a17.15 17.15 0 0 1 11.4-10.4c-.21-.86-.42-1.76-.61-2.68a13.63 13.63 0 0 1 -3.68-4.37 14.29 14.29 0 0 1 -1.52-7.94 15.27 15.27 0 0 1 -3.71-8.19 14.8 14.8 0 0 1 2.16-9.53c-1.79-5.09-2.36-11.77 1.53-17.8-1.55-6.14-1.38-13.72 2.82-19.79-3.09-2-5.8-4.77-6.64-8.57a12.07 12.07 0 0 1 2.05-9.51c-5.14-4.51-7-9.83-5-15a14.59 14.59 0 0 1 3.76-5.48c-2.61-5.24-2.32-9.92 1-13.52l.23-.24c-2.57-6.06-1.5-10.22.28-12.88a11.83 11.83 0 0 1 1.81-2.18c-2.58-4.93-5-10.97-5.39-16.44-.82-12.88 4.06-21 14.48-24.18a13.94 13.94 0 0 1 4-.59c8.12 0 16.07 6.89 21 15.25a13.7 13.7 0 0 1 2-.27h.86a12.6 12.6 0 0 1 2.65.27 12.42 12.42 0 0 1 6.17-3 11.94 11.94 0 0 1 1.89-.15 11.49 11.49 0 0 1 2.8.34c2.79-3.45 6.45-6.24 11-6.24a11.25 11.25 0 0 1 2.17.22 13.16 13.16 0 0 1 6.37 3.41 11.85 11.85 0 0 1 2-.17 11.7 11.7 0 0 1 3.86.64 16.76 16.76 0 0 1 5.65-2.06 10.67 10.67 0 0 1 7.31 1.44 25 25 0 0 1 10.11-8.91 21.17 21.17 0 0 1 8.57-1.9c7.85 0 16.68 5.44 17.94 20.72.7 8.42-3 17.38-6.25 23.54a12.94 12.94 0 0 1 1.69 2.81 14.2 14.2 0 0 1 1.23 5.21 12.49 12.49 0 0 1 1.92 2c3.51 4.53 2.57 11.91.94 17.49a14.18 14.18 0 0 1 1.9 8.22c-.17 4.25-2 8.72-3.69 12.1a14.47 14.47 0 0 1 .86 4.13c.23 3.68-1.53 7.49-3.92 10.88a12.18 12.18 0 0 1 .64 4.36c-.1 2.88-1.5 6.3-4.19 10.21a12.22 12.22 0 0 1 1.37 5.54c0 4.15-2 8.08-3.62 10.7.35 6.75.87 23.57-1.79 34.6-.26 1.1-.57 2.2-.91 3.3a25 25 0 0 1 9 5.73 13.05 13.05 0 0 1 3.08 4.86 13.94 13.94 0 0 1 4.93 3.72c4.83 5.7 3.75 13.16 3.61 14a13.17 13.17 0 0 1 -1.52 4.39 18.76 18.76 0 0 1 4.06 9.46 19.41 19.41 0 0 1 -1.24 9.9 23.8 23.8 0 0 1 .39 9.22 23.45 23.45 0 0 1 -5.38 11.41 34.91 34.91 0 0 1 1.94 6.38 85.46 85.46 0 0 1 1.84 12.46l.25 3.27c.37 4.74.7 9 .1 12.87a18.2 18.2 0 0 1 -1.26 15.8c-.13.21-.26.43-.4.63-6.4 9.23-28.57 10.5-28.78 10.5a17.82 17.82 0 0 1 -6.89-1.23c-.36 0-.73 0-1.1 0a19.13 19.13 0 0 1 -5.33-.76l-1-.32a15.68 15.68 0 0 1 -11.85 8.8 25.4 25.4 0 0 1 -4.21.2z" fill="#fff" stroke="#706f6f" stroke-miterlimit="10" stroke-width=".2"/><path d="m134.9 219.12a10 10 0 0 0 -7.85-8.74 19.41 19.41 0 0 0 -2.09-.29c5.46-3.42 7-4.74 7.43-7.2.21-1.24.29-5-1.82-7.51a5.92 5.92 0 0 0 -4.49-2.12 6.11 6.11 0 0 0 -.73.05 4.61 4.61 0 0 0 -1.45.36 6.21 6.21 0 0 0 .47-1.36 5.29 5.29 0 0 0 -1.36-5c-.17-.17-4.33-4.28-8.54-4.28a6.16 6.16 0 0 0 -4.84 2.27 97.13 97.13 0 0 0 -4.93 8.86c-4.16 8.14-4.44 9.34-3.94 11.33a7.07 7.07 0 0 0 4.94 5.19 9.73 9.73 0 0 0 -5 4 14.6 14.6 0 0 0 -8.09-4.44 10.62 10.62 0 0 0 -2.07-.17 16.24 16.24 0 0 0 -5.32.82l-.14.06a6 6 0 0 0 -2 1.51l-.74-.22a20.61 20.61 0 0 0 -4.85-.5 23 23 0 0 0 -7.11 1c-3.45 1.23-5 3.58-4.62 7.18.22 2.29 1.23 7.92 2.08 12.18.8 4 1.37 6.53 1.84 8.22a6.27 6.27 0 0 0 -2.81 2.48 7 7 0 0 0 -.19 7.15 8.52 8.52 0 0 0 4.06 3.55h-1a10.69 10.69 0 0 0 -4.08.72 8.73 8.73 0 0 0 -4.66 3.78c-.77 1.49-4.77 15.77-6.5 22.23a25.57 25.57 0 0 0 -5.59-.68c0-2 0-4.26 0-6.08 0-10.28-.09-13.08-1.19-15 1.68-.34 3.67-.7 6-1 2.53-.26 9.25-1 9.95-9.56a7.49 7.49 0 0 0 -1.81-5.58 7.86 7.86 0 0 0 -.64-.65c.08-.12.17-.24.25-.37a23.7 23.7 0 0 0 3.8-12.91c0-10.48-6.64-17.52-16.5-17.52h-.34a19.3 19.3 0 0 0 -3.44.81 13.32 13.32 0 0 0 -6.07 4.31 8.85 8.85 0 0 0 -2.14-2c2.94-2.06 3.25-7 3.37-8.79.2-3.21-.78-5.44-2.9-6.62a13.46 13.46 0 0 0 -5.72-1.21 6.31 6.31 0 0 0 -4.86 1.79c0-.1 0-.2-.07-.3-1.84-7.93-3.22-9.79-5.44-10.77a7.32 7.32 0 0 0 -3-.62 9.24 9.24 0 0 0 -8.52 5.79c-.6 1.65-.86 3.78 2.48 11.55a56 56 0 0 0 3 6.14c-3.11.66-5.43 2.49-6.21 5l-.12.47c-.08.43-.24 1.23-.24 19.62v6.57c0 9.17-.06 12.78 1.33 15.15-.88 1.94-.88 4.43-.88 7.23 0 13.58 1.34 22.22 4.13 25.75-1.54 1.59-2.3 4.05-2.24 7.29a15.78 15.78 0 0 0 1.16 5.89c1.77 3.53 6 3.75 9.08 3.91 3.3.17 8.3.17 15.87.17s17.85.38 27 .72c6.79.25 12.65.46 15.8.46a19.07 19.07 0 0 0 2.9-.14c3.64-.61 6.26-3.18 6.52-6.4a6.24 6.24 0 0 0 -.13-1.81c3-.8 4.59-2.17 5.33-4.11a6.68 6.68 0 0 0 4.73 4.11 11 11 0 0 0 3.08.44 10 10 0 0 0 2.61-.33 8.45 8.45 0 0 0 5.38 1.53c3.71 0 19.08-2.56 22.18-7l.16-.26c1.54-2.53 2-6.88 0-10l-.39-.52c1.23-3.16.88-7.66.43-13.42-.08-1-.16-2.11-.25-3.29a78.92 78.92 0 0 0 -1.66-11.27c-1.1-4.85-2.31-7.87-5.21-9a10.76 10.76 0 0 0 -2-.54 10.73 10.73 0 0 0 6-2.71 15.81 15.81 0 0 0 4.57-8.5 14.21 14.21 0 0 0 -1.2-8.66 11.5 11.5 0 0 0 2.05-8.19zm-110-5.33a7.45 7.45 0 0 0 1.42-1.07 4.65 4.65 0 0 0 .67.81 9.56 9.56 0 0 0 -1.68 1.06c-.16-.3-.31-.59-.43-.8zm6.26 52.21c-.18 4.62-.2 8.49-.09 11.74a28.5 28.5 0 0 0 -3.83-.45c-.09-1.75-.17-3.82-.22-5.45-.25-7-.43-10.27-1-12.28l.17.07a9.92 9.92 0 0 0 3.57.65 11.14 11.14 0 0 0 1.92-.16 38.41 38.41 0 0 0 -.52 5.88zm47.08-9.27a1.17 1.17 0 0 0 0 .2 7.83 7.83 0 0 0 -1.81-1.93c.77.11 1.58.21 2.44.29a5.05 5.05 0 0 0 -.63 1.43zm33-4.09a4.29 4.29 0 0 0 -.23.63c-.28 1-.57 2-.84 3a8.29 8.29 0 0 0 -1.94-3.53 20.1 20.1 0 0 0 4.28-2.08 7.76 7.76 0 0 0 -1.25 1.97zm4.14-4.29-.53.32a8 8 0 0 0 1.53-2.44 12.62 12.62 0 0 0 2.84.87 9.88 9.88 0 0 0 -3.82 1.24z" fill="#4f4249"/><path d="m49.22 241.05c12.58.07 16.65-27.52-.74-27.37a14.19 14.19 0 0 0 -2.51.59c-10.51 3.4-11.97 26.73 3.25 26.78zm-3.7-17.05c.89-5.25 4.66-4.51 5.48-3.85 2 1.7 1.55 7.62-.67 9.84-2.44 2.33-5.84.01-4.81-5.99zm-28.77 29.48c5.18-1.63 4.51-3.26 4.51-11.32 4 8.06 4.88 10.06 6.51 10.65 2.59 1 6.29-.52 7-3 .52-1.92 1.33-27.44 1-30.48-.81-5.47-6.81-4.44-8.06-2.44-.45.74-.45 1-.45 11.25.08 5.77.08 10.5.08 10.43s-2.15-7.62-3.85-14.13c-2.82-10.44-2.82-10.1-3.64-10.44-1.92-.88-5.84-.37-6.36 1.33-.07.37-.15 8.73-.15 18.65 0 19.35-.59 20.75 3.41 19.5zm36.32-3.19c3.62-.37 5.18-1.25 5.47-5a2.76 2.76 0 0 0 -2.81-2.88 22.2 22.2 0 0 0 -3.84.3c-4.66.74-11.91 2.51-13.47 3.32s-1.25 5.11-.44 6c1.7 1.82 4.81-.48 15.09-1.74zm56.53 35.57a7.07 7.07 0 0 0 4.31-1c1.46-.95 1.56-2.27 2.57-5.86.23-.67 1.72-1.34 2.58-1.78 1.46-.75 1.38-.93 1.71 2 .4 3.49 1 4 3.41 3.53 4.66-1 4-3.45 3-16.46-.54-7.3-2.36-15.45-3.68-16s-4.14-.74-5.79.23a4.69 4.69 0 0 0 -2.09 2c-2.8 9.78-5.45 19.73-7.73 29.55-.62 2.76-.19 3.59 1.71 3.79zm10.85-16.31-3 1.49c.06-.58 2.65-13.74 3-1.49zm-53.78 17.45c-6.31.66-7.64.73-8.26 2.05-.47 1-.65 2.77.3 3.71 1.91 1.9 18.86 0 20.23-1.55a3.59 3.59 0 0 0 0-3.86c-1.11-1.48-3.57-1.29-12.27-.35zm23.73-48.81c3 0 2.49-.52 2.33-5.68 4 6.78 3 6.06 5.83 4.94 2-.76-.75-5.1-2.78-8.28 1.63-2.68 3-5.43 3-8.58s-2.39-6.67-7.26-7.62a12.59 12.59 0 0 0 -4.4.31c-.86.4-.86 0 .13 11.16 1.3 14.82.99 13.78 3.15 13.75zm2.15-20.35a5.24 5.24 0 0 1 .29 8l-.53.49-.59-9a3.4 3.4 0 0 1 .83.51zm15.45 12.24c8.3.44 13-18.39.42-17.88a10.29 10.29 0 0 0 -1.9.4c-7.88 2.31-8.52 16.94 1.48 17.48zm-2-11.19c.77-3.4 3.51-2.92 4.07-2.47 1.38 1.13.76 5.05-.87 6.43s-4.08-.08-3.2-3.96zm-31.14 19.43a3.39 3.39 0 0 0 4.59-.58c.45-.65-.13-4.13-.32-5.26a9.92 9.92 0 0 0 6.76-7.66c.34-1.62.3-8.57-5-9.92a20.58 20.58 0 0 0 -9 .36c-1.3.46-1.45.71-1.33 2 .34 3.74 3.55 20.4 4.3 21.06zm3.74-20a5.48 5.48 0 0 1 2.66 2.68c1.28 3.94-2.52 7-2.64 6.9s-1.37-8.65-1.38-9.31.69-.51 1.36-.3zm31.53 18c2.27-.08 3.31-.58 3.77-3a1.8 1.8 0 0 0 -1.65-2.06 13.55 13.55 0 0 0 -2.54 0 45.48 45.48 0 0 0 -8.83 1.79c-1 .46-.79 3.24-.28 3.82 1.06 1.2 3.05-.34 9.53-.57zm-93.13 49.32c3 2.35 7 1 14.06 1.89 2.06.27 4.35.85 3.92-3.09-.18-1.73-.6-2.25-2.19-3.09s-6.5-1.63-9.94-1.05c-1.27.21-.75-20.2-2-21.93-.67-.93-1.55-1.26-3.41-1.36a15 15 0 0 0 -2.24 0c-1.24.38-1.33.93-1.35 5.86-.04 2.77.27 20.5 3.15 22.77zm84.06-32c-2.73.31-3.13.38-5.2 9.87a58.16 58.16 0 0 1 -1.68 6.87c-4.49-16.22-2.4-15.51-8.18-15.05-2.45.19-2.83.29-3.13.61-3 10.73-3.57 26.87.2 37.42a4.78 4.78 0 0 0 4.12.66c3-.65 3-.76 2.57-7.67-.67-11.88.45-.9 2.69.29 1.09.52 3.33.5 3.78 0a46.57 46.57 0 0 0 1.88-5.93c.18 10.18-.09 12.56 2.32 13.26 2 .58 4.35.07 4.73-1.19a166.87 166.87 0 0 0 .35-35.51c-.35-3.42-1.14-4.03-4.46-3.65zm24.48-28.72c6.3-3.19 5-10.82.33-11.76a18.14 18.14 0 0 0 -5.77-.1c-1 .35-1 .88-1.61 2.91a88.58 88.58 0 0 0 -1.79 10.15c-.55 4.84-.74 10.31-.4 11.46.67 2.59 6.76 3.77 9.53 1.2a10.92 10.92 0 0 0 3.09-5.62c.98-6.73-3.45-8.16-3.39-8.26zm-4.74 11.08c-.18 0 0-4.38.65-9.07 0 0 2.55.67 3 2.94.68 4.18-3.01 6.23-3.65 6.13zm1.26-12.51c1.52-7.91 1-8.07 2.21-7 2.08 1.82 1.17 4.87-2.21 7.04zm-6.06 63.42c-6.36 1.53-7.73 1.8-8.41 3.47-.52 1.28-.77 3.42.15 4.44 1.85 2 19-2.29 20.44-4.34a5 5 0 0 0 .09-4.59c-1.08-1.57-3.52-1.1-12.27 1.02zm-63.57 3.35c2.07.17 4.37.67 4.06-3.64-.13-1.89-.53-2.44-2.11-3.27s-6.5-1.41-10-.55c-1.28.31 0-22.28-1.21-24.13-.64-1-1.51-1.31-3.36-1.33a15.72 15.72 0 0 0 -2.24.14c-1.25.49-1.37 1.11-1.58 6.57-.12 3.06-.56 22.73 2.26 25.05s7.02.59 14.16 1.16zm7.87-4.82a7.7 7.7 0 0 0 4.26-.43c1.43-.65 1.5-1.75 2.4-4.66.21-.54 1.69-1 2.54-1.25 1.46-.49 1.36-.64 1.77 1.83.5 3 1.08 3.48 3.52 3.29 4.67-.36 3.93-2.54 2.64-13.59-.72-6.18-2.77-13.19-4.15-13.73s-4.24-.95-5.9-.27a3.77 3.77 0 0 0 -2.07 1.49c-.44.84-5.79 19.49-6.83 24-.55 2.25-.12 2.96 1.8 3.32zm10.38-12.62-2.93 1c-.02-.5 2.25-11.31 2.91-1zm21.21-24.56c20.92-1.1 20.92-7.49 19.16-7.93s-4.41 1.76-18.72 3.09-20.06-2.42-21.33-.22 0 6.16 20.87 5.06zm-9.89 49.74c-3.3-1.1-31-2-43.15-3.3s-21.16-3.7-22.28-2.62c-1.32 1.32-.88 6.16-.22 7.48s5.5 1.32 20.48 1.32 42.27 1.55 44.91 1.1 3.53-2.86.26-3.98zm25.87-94.35c1.33-.44 12.33-14.09 11.45-15s-4.76-3.9-5.94-2.42c-.88 1.1-8.15 15-7.93 15.85a1.93 1.93 0 0 0 2.38 1.59zm6.06 2.54s.83 1.81 1.82 1.32 11.39-6.61 11.56-7.6-.17-4-1.49-3.8-11.6 9.27-11.93 10.1zm-93.63 1.48a3.14 3.14 0 0 0 2.47-.82c.83-1-2.31-15.69-3.79-16.35s-4.13.49-4.79 2.31 4.91 14.19 6.07 14.88zm13.48.06c.55-.22 1.87-6.39.88-6.94s-4.24-.81-4.51-.33c-.55 1-.33 7.05.22 7.38a7.16 7.16 0 0 0 3.37-.09z" fill="#dfdfef"/><path d="m21.89 110.23s-1.29-3.65.59-4c0 0-9.89-2.47-10.83-6.71s7.53-9.06 7.53-9.06-12.94-5.46-10.83-10.83 9.3-4.63 9.3-4.63-9.06-8.71-6.12-11.89a5.58 5.58 0 0 1 6.47-1.37s-7.53-9.18-5.17-12.74 7.77-1.29 7.77-1.29-9.42-12.95-10-22.25 2.24-14 8.83-16 16.71 8.59 19.18 19.3c0 0 2.36-4.36 6-4.59s5.06 3.29 5.06 3.29 1.88-5.53 5.41-6.12 5.53 4.36 5.53 4.36 4.83-11.16 9.39-10.22 4.71 7.41 4.71 7.41 2.23-4 5.3-4 3.88 3.3 3.88 3.3 2.71-4.12 6.94-4.83 7.07 10 7.07 10 4-14.36 12.24-18 14.36.7 15.3 12.12-9.42 25.78-9.42 25.78 4-.24 5.53 3.18-.7 7.53-.7 7.53a4 4 0 0 1 4.82 1.29c2 2.59-.58 12.72-2.35 15.42 0 0 3.77-.59 3.53 5.06s-5.41 13.19-5.41 13.19 2.35.11 2.59 3.88-6.71 10.71-6.71 10.71a3.5 3.5 0 0 1 3.41 3.77c-.12 3.65-7.3 11.53-7.3 11.53s4.48.71 4.48 4.48-3.77 8.35-3.77 8.35 1.65 22.37-1.41 35.08-12.45 24.6-19.51 28.27-13.22-.61-13.54-14.38l-4-.12s.24 20.72-12.83 21.89-14.85-18.83-14.85-18.83-3.3 8-11.3 8.12-14.22-7.68-16.58-23.42c0 0-6.94-1.53-3.53-10 0 0-9.88-5.53-1.06-13.77 0 0-6.94-10 1.18-17.18 0-.01-6.94-14.61 5.18-21.08z" fill="#4f4249"/><path d="m17.24 98.75c-.19-1.16 6.42-3.23 6.53-7.59s-10.35-7.41-9.65-10.24 6.59-2.47 7.53-4.82-4.7-5.54-3.41-8 5.42 1.53 6.59-1.06-7.41-9.06-6-12.71 7.17 1.29 9.17-2.6-17.4-27.4-9-33.9c6.3-4.94 17.37 17.17 17.37 17.17s-.83 6.94 2.82 7.06 2.12-11.18 5-12 3.76 4.71 6.12 3.77 2.59-6.47 4.7-6.59 2.95 4.59 6 4.94 5.18-11.3 8.12-10.59 2.12 6.12 4.94 6.94 1.77-4.35 5-3.76.93 5.3 4.03 4.83 3.41-6.23 6.82-5.88 6 13.65 11.3 12 7-22.36 14.48-20.48-2.47 24.13-4.59 28.61-.35 6.94-.35 6.94-.83 3.65 1.17 3.65 3.89-3.53 5.65-1.77-3.29 8.95-2.23 10.36 4.94-1.29 6.47.47-6 10.24-4.83 13.18 4.24 1.06 5.06 3.3-7.05 12.71-6.94 14.12 3.41 1 3.77 3-9.65 10.94-8.71 13.65 4.35.59 4.94 1.88-8 8.12-7.3 11.3 4.36 2.36 4.24 5.06-5.06 3.3-4.24 6.83 2.36 1.18 2.71 3.53-1.41 24.72-4.94 32.25-11 22.6-17 20.48c-4-1.41-1.42-20.25-3.18-22.48s-4.83.47-4.47 6.71a17.88 17.88 0 0 1 -7.3.35s.59-5.88-2.59-6.12-2.04 5.46-1.83 7.13 1.76 19.78-6.48 21.07-11.3-20.48-11.41-26-6.83-3.53-6.71.35-.83 15.54-7.54 15.89-10-19.18-10.94-19.65-4.24-.47-5.06-2.59 1.17-4.59.7-7.18-4-1.3-4.82-4.24 5.18-6.95 5.18-9.53-5.13-2.79-4.48-6.14 4-2.82 4.59-5.76-.47-4.48.47-5.42 6.48-1.88 5.42-5.18-7.42 0-7.42 0-1.41-6.23 3.65-7.18a4.8 4.8 0 0 0 5.64 4.48s-.47 11.77 5.65 12.47c0 0-1.29 7.54 2.59 9.42a6.87 6.87 0 0 0 7.06-.71s-3.65-.82-4.71-4 .36-5.88-1.05-8.71-2.48.12-4.24-2.59 1.18-4.59-.12-6.82-6.47-2.48-8.36-7 3-3.65 3.18-5.53-.7-4.12-5.53-5.18-6.93-1.36-7.23-3.19z" fill="#fcdfc8"/><path d="m42.14 71.62c-.65-1.53.35-4.35 2.94-5.76s5.06-.36 5.53.82 0 2.71-.47 2.94-1.77-.12-2.71.47-.59 2.47-1.43 2.71-3.28.2-3.86-1.18z" fill="#4f4249"/><path d="m93 56.32c1.35-.45 5 .83 6.24 2.59s-1.41 4.36-2.35 4.36-4.36-2.12-4.83-3-.49-3.48.94-3.95z" fill="#4f4249"/><path d="m68 151.8c-8 6.58-2.61 18.68 1.14 25.11-.31-2.19-.8-6.62 2-6.42 3.18.24 2.59 6.12 2.59 6.12a17.88 17.88 0 0 0 7.3-.35c-.34-5.89 2.36-8.58 4.15-7a115.84 115.84 0 0 0 2.16-14.4c.23-6.99-8.18-12.31-19.34-3.06z" fill="#f9f2ed"/><path d="m19 17.83c-6.94 5.36 5 22.26 8.33 30.22 1.92-3 5.54-8.13 9-10.22a17 17 0 0 1 0-2.81s-11.03-22.13-17.33-17.19zm96.75-2.59c-6.75-1.67-8.75 14.52-12.91 19.27 2.15 1.27 6.48 4.28 8.46 8.92 2.44-5.21 11.7-26.35 4.4-28.19z" fill="#f9f2ed"/><path d="m72.76 73.46c-11.84 1.48-46.71 7.73-56.7 10.2 1.93 1.44 4.83 3 6.47 4.79 3.79-.5 8.73-1.2 14.41-2-1.88 5.84 6.59 19.52 24.26 15.1 14.24-3.55 13.64-14.65 11.56-20.47l6.52-1c.1 6.21 3.39 16.52 17.8 15.07 16.42-1.66 20.7-14.76 18.57-20.81l1.65-.27c1-2.67 3.47-6.21 4.38-8.52-12.15 1.45-38.88 6.65-48.92 7.91z" fill="#e0bca2"/><path d="m71.27 70.31c-13.21 1.69-55.16 9.25-59.12 10.9 0 0-3 4.62 1 5 1.09.09 10-1.09 22.31-2.88-1.87 5.84 6.6 19.52 24.26 15.1 14.28-3.61 13.63-14.68 11.55-20.5l6.52-1c.1 6.21 3.39 16.52 17.81 15.07 16.41-1.66 20.69-14.76 18.56-20.81 6.41-1 10.43-1.75 10.61-1.87 1-.66 1.33-4.62 1.58-6.91s-41.87 6.25-55.08 7.9z" fill="#4f4249"/><path d="m51.8 80.15c.24-.66-6.39-2.09-9.91 1s-.33 10.68 2.86 11.34-1.32-5 .66-7.93 5.95-3.2 6.39-4.41z" fill="#f9f2ed"/><path d="m95.72 74.76c.25-.67-6.38-2.1-9.9 1s-.33 10.68 2.86 11.34-1.32-5 .66-7.93 5.94-3.17 6.38-4.41z" fill="#f9f2ed"/><path d="m72.38 94.1c1.77.36 3.42 3.89 6.13 3.3s4.7-4.71 6.23-4.71a3 3 0 0 1 2.83 3.65c-.47 2.12-6.36 5.77-6.36 5.77l.12 7.53s1.18 1.77 4.12-3.29a2.13 2.13 0 0 1 3.06-.24c1.65 1.41 1.06 3.53.24 4.83s-5 6.94-9 3.64c0 0-3.18 3.06-6.71 1.3s-4.24-4.83-2.94-6.12a2.16 2.16 0 0 1 2.82-.12s2.24 2 3.53 0 .12-7.06.12-7.06-6.24-2.12-7.18-4.12 1.82-4.59 2.99-4.36z" fill="#4f4249"/><path d="m65.75 191.53c-3.63 6.54-9.39 2.52-9.53 2.42 1.67 3.15 3.81 5.22 6.51 4.79 8.24-1.29 6.71-19.42 6.48-21.07a30 30 0 0 1 -3.46 13.86zm27.38-5c-3.82 1.11-5.88.28-6.69-.22.28 3 .88 5.3 2.19 5.76 6 2.12 13.42-12.94 17-20.48a43.29 43.29 0 0 0 2.62-9.5c-1.68 2.54-10.06 22.91-15.12 24.4zm-55.2-3.53c-5.49.67-9-5.12-9.06-5.13 1.8 5.4 4.47 11.35 8.2 11.15 6.71-.35 7.65-12 7.54-15.89 0-.05-1.19 9.14-6.68 9.87z" fill="#e0bca2"/><path d="m40.25 46c-4 1.89-4.47 6.12-4.35 8.24a2.57 2.57 0 0 0 3.65 2.12c1.05-.7.23-3.88 1.88-4.35s2.24.94 3.18.94 3.29-1.41 2.7-3.06-3.42-5.64-7.06-3.89zm14.83-2.11c4 .82 1-2.31 4-2.83 4.12-.71 1.53 3.18 5.07.59 1.75-1.28-.5-5.92-4.71-5.42-6.83.77-7.02 7.07-4.36 7.62zm21.07 1.76c.71-1.06-1.41-4.71 1.06-5.3s2.12 1.42 4 2a2.16 2.16 0 0 0 2.71-2.59 5.93 5.93 0 0 0 -7.53-3.65 7.07 7.07 0 0 0 -4.59 8.24c.47 1.97 3.64 2.32 4.35 1.26zm16.95.24c1.88.23 1.18.58 2.12 2s2.35 2.23 3.41 1.53 1.53-3.3-.23-6-5-2.88-6.12-2.82c-2.12.12-2.12 2.82-2.12 3.65s1.06 1.36 2.94 1.6zm-34.1 1.84c-4.71.59-4.76 6.65-4.24 7.77.71 1.53 3.41 1.65 3.65 1.06s.12-3.53 1.29-3.65 2.12 2 2.59 2.35 2.59-.23 3.3-1.53-1.92-6.59-6.59-6zm-5.3 88c1.29-.71.94-3.41 3.06-3.18s1.06 1.77 2.24 3.06 3.88 0 4-1.76-1.3-7.06-5.89-6.95a7.66 7.66 0 0 0 -6.94 4.12c-.59 1.06-.94 2.59-.47 3.06s2.68 2.4 3.97 1.69zm8.95 12.36c-.65-1.09-3.35-3.17-5.65-2.79-3.54.59-5.18 4-4.83 5.89s2.94 2.24 3.65 1.77-.24-2.12 1.65-2.59 2.12 1.06 3.06 1.29 2.67-2.35 2.09-3.53zm24.83-6.83c.35-1.53-1.18-5.06-5.18-4.94a6.93 6.93 0 0 0 -6.47 4.24c-.94 2 2.47 4.35 3.29 3.88s.59-3.06 2.48-3.18 1.53 1.06 2.35 2.24 3.15-.67 3.5-2.2zm5.03-6.26c1.18-.12 1.3-3.06 3.42-1.65s.47 1.88 1 2.94 2.71 1.88 3.42-.12-.63-6.56-3.89-7.65c-4.23-1.41-6.71 1.53-6.94 3.42a2.94 2.94 0 0 0 2.99 3.06zm-50.26 10.66c-4.23 2.12 0 5.88 1.77 4.35s-.71-4.88-1.77-4.35zm-12 4.94c1.53-.59 1.41.47 2.47.83s2.71-1.18 2.59-2.36-2.24-5.41-6.71-3.06a5.34 5.34 0 0 0 -2.35 7.89c.58.94 2.7 1.53 3.41.59s-.94-3.3.59-3.89zm2.12 9.77c-2.71 2.47-3.18 7.06-2.48 7.89s4.48.7 4.83.11.24-3.76 1.41-4.7 2-.24 3.18-.36a2.32 2.32 0 0 0 1.18-3.88c-1.65-1.65-6.22-.8-8.12.94zm38.72-5.18c-6.36 2.36-5.53 8.48-4.94 9.3s3.65.82 4.23.35.12-3.41 1.18-4 2.35.47 3.77.35 2.12-1.53 1.88-3.17-3.08-3.95-6.12-2.83zm15.18-8.94c-2 .82-2.59 2.82-.94 4.47s3.89.47 4.59-1.3a2.65 2.65 0 0 0 -3.65-3.17zm10.24 3.17c-1.76.24-1.53 2.48-1.06 3.06s3 .59 3.89 1.77-.12 4.71 1.41 5.3 3.41-6.36 1.77-8.83-5.52-1.37-6.01-1.3zm-4.82 10.83c.94-.7.92-6.35-.83-6.59-4.23-.59-6.82.12-6.59 1.53s2.12 1.41 3 1.65 1 2.12 1.53 2.71 1.95 1.45 2.89.7zm6 2.36a4.63 4.63 0 0 0 -1.41 3.53c.23 1.17 4.24 4.82 5.29 4.59s.71-.94.36-2.83-3.5-5.73-4.24-5.29zm-4.31 4.67c-.6.35-1.56 3.3-1.33 4.48s5 6.28 6.07 6.05 1.77-.58 1.43-2.46-5.44-8.5-6.17-8.07zm-2.52 9a4.71 4.71 0 0 0 -1.41 3.53c.24 1.17 4.24 4.82 5.3 4.59s.7-.94.35-2.83-3.5-5.77-4.24-5.32zm-28.72-4a4.74 4.74 0 0 0 -1.41 3.53c.27 1.19 4.27 4.79 5.27 4.55s.7-.94.35-2.82-3.47-5.74-4.21-5.3zm-1.14 7.63a3.77 3.77 0 0 0 -1.34 3.14c.23 1.18 5 6.28 6.08 6s1.76-.57 1.43-2.46-5.46-7.12-6.17-6.68zm-.36 8.69a4.75 4.75 0 0 0 -1.41 3.54c.24 1.17 3.18 2.6 4.24 2.36s.71-.94.35-2.82-2.47-3.52-3.21-3.08z" fill="#4f4249"/></svg>